<svg xmlns="http://www.w3.org/2000/svg" width="66" height="66" viewBox="0 0 66 66">
    <g fill="none" fill-rule="evenodd" transform="translate(1 1)">
        <circle cx="32" cy="32" r="32" stroke="#474747"/>
        <g fill-rule="nonzero">
            <path fill="#FFCC3A" d="M42.51 38.648a5.8 5.8 0 0 0-3.194-1.069c-1.7.032-4.3.87-6.12 5.037V24.42a.877.877 0 0 0-1.753 0v18.196c-1.818-4.167-4.419-5.005-6.119-5.037h-.082c-1.123.026-2.21.4-3.112 1.07a.877.877 0 1 0 1.096 1.369 3.63 3.63 0 0 1 2.016-.686h.05c3.127.057 5.37 3.929 6.158 10.621a.877.877 0 0 0 1.741 0c.79-6.692 3.032-10.564 6.159-10.62h.05a3.666 3.666 0 0 1 2.016.687.877.877 0 0 0 1.09-1.372h.004z"/>
            <path fill="#FF4D3C" d="M21.147 48.974a.876.876 0 0 1-.408-.1l-2.443-1.285-2.444 1.284a.877.877 0 0 1-1.271-.924l.466-2.717-1.977-1.928a.877.877 0 0 1 .486-1.49l2.732-.398 1.227-2.476a.91.91 0 0 1 1.57 0l1.223 2.476 2.731.398a.877.877 0 0 1 .487 1.49l-1.978 1.928.467 2.717a.877.877 0 0 1-.868 1.025zM35.171 22.678a.876.876 0 0 1-.407-.1l-2.444-1.285-2.444 1.284a.877.877 0 0 1-1.27-.923l.466-2.718-1.978-1.928a.877.877 0 0 1 .487-1.49l2.73-.398 1.22-2.482a.91.91 0 0 1 1.57 0l1.224 2.475 2.73.398a.877.877 0 0 1 .487 1.49l-1.977 1.928.466 2.718a.877.877 0 0 1-.86 1.031zM49.196 48.974a.876.876 0 0 1-.408-.1l-2.444-1.285-2.443 1.284a.877.877 0 0 1-1.271-.924l.466-2.717-1.977-1.928a.877.877 0 0 1 .486-1.49l2.731-.398 1.22-2.483a.91.91 0 0 1 1.57 0l1.223 2.476 2.731.398a.877.877 0 0 1 .487 1.49l-1.978 1.928.467 2.717a.877.877 0 0 1-.86 1.032z"/>
            <path fill="#50E3C2" d="M20.049 24.431a2.63 2.63 0 0 1-2.63-2.63.877.877 0 0 0-1.753 0 2.63 2.63 0 0 1-2.63 2.63.877.877 0 1 0 0 1.753 2.63 2.63 0 0 1 2.63 2.63.877.877 0 0 0 1.753 0 2.63 2.63 0 0 1 2.63-2.63.877.877 0 1 0 0-1.753zM51.603 24.42a2.63 2.63 0 0 1-2.63-2.63.877.877 0 1 0-1.752 0 2.63 2.63 0 0 1-2.63 2.63.877.877 0 0 0 0 1.753 2.63 2.63 0 0 1 2.63 2.63.877.877 0 0 0 1.753 0 2.63 2.63 0 0 1 2.63-2.63.877.877 0 1 0 0-1.753z"/>
            <path fill="#FFCC3A" d="M28.814 36.703a.877.877 0 0 1-.789-.485c-3.197-6.393-7.794-6.536-7.989-6.539a.877.877 0 0 1 .008-1.753c.237 0 5.842.098 9.548 7.508a.877.877 0 0 1-.778 1.269zM35.826 36.703a.877.877 0 0 1-.784-1.269c3.706-7.409 9.31-7.507 9.55-7.508a.877.877 0 1 1 0 1.753c-.19 0-4.787.146-7.983 6.539a.877.877 0 0 1-.783.485z"/>
        </g>
    </g>
</svg>
