<svg xmlns="http://www.w3.org/2000/svg" width="66" height="66" viewBox="0 0 66 66">
    <g fill="none" fill-rule="evenodd" transform="translate(1 1)">
        <circle cx="32" cy="32" r="32" stroke="#474747"/>
        <g fill-rule="nonzero">
            <path fill="#FF4A39" d="M32.32 16.64c-12.194 0-22.08 9.886-22.08 22.08 0 .322.01.641.024.96h5.784c-.018-.32-.048-.636-.048-.96 0-9.013 7.307-16.32 16.32-16.32s16.32 7.307 16.32 16.32c0 .324-.03.64-.048.96h5.784c.013-.319.024-.638.024-.96 0-12.194-9.886-22.08-22.08-22.08z"/>
            <path fill="#FFDA36" d="M32.32 20.48c-10.074 0-18.24 8.166-18.24 18.24 0 .324.032.64.048.96h5.76a12.555 12.555 0 0 1-.048-.96c0-6.893 5.587-12.48 12.48-12.48 6.892 0 12.48 5.587 12.48 12.48 0 .324-.024.642-.049.96h5.76c.017-.32.049-.636.049-.96 0-10.074-8.166-18.24-18.24-18.24z"/>
            <path fill="#5CE95C" d="M32.32 24.32c-7.953 0-14.4 6.447-14.4 14.4 0 .324.027.641.048.96h5.768a8.712 8.712 0 0 1-.056-.96 8.64 8.64 0 1 1 17.28 0c0 .325-.021.644-.056.96h5.768c.02-.319.048-.636.048-.96 0-7.953-6.447-14.4-14.4-14.4z"/>
            <path fill="#35B6FC" d="M32.32 28.16c-5.832 0-10.56 4.728-10.56 10.56 0 .324.02.643.048.96h3.868a6.734 6.734 0 0 1-.076-.96 6.72 6.72 0 1 1 13.44 0c0 .327-.031.646-.076.96h3.868c.028-.317.048-.636.048-.96 0-5.832-4.728-10.56-10.56-10.56z"/>
        </g>
    </g>
</svg>
