<svg xmlns="http://www.w3.org/2000/svg" width="24" height="25" viewBox="0 0 24 25">
    <path fill="#FFF" fill-rule="evenodd" d="M2 23a.5.5 0 0 1-.5-.5v-10A.5.5 0 0 1 2 12h4.163L8.79 2.368A.5.5 0 0 1 9.273 2 3.227 3.227 0 0 1 12.5 5.227v4.955h6.318a3.227 3.227 0 0 1 3.19 3.718l-.98 6.363A3.227 3.227 0 0 1 17.843 23H2zm4.045-1v-9H2.5v9h3.545zM9.646 3.031l-2.6 9.536V22h10.796a2.227 2.227 0 0 0 2.198-1.889l.98-6.363a2.227 2.227 0 0 0-2.202-2.566H12a.5.5 0 0 1-.5-.5V5.227a2.228 2.228 0 0 0-1.854-2.196z"/>
</svg>
