<svg xmlns="http://www.w3.org/2000/svg" width="66" height="66" viewBox="0 0 66 66">
    <g fill="none" fill-rule="evenodd" transform="translate(1 1)">
        <circle cx="32" cy="32" r="32" stroke="#474747"/>
        <g fill-rule="nonzero">
            <path fill="#FB2222" d="M47.22 51.84h-29.8a1.753 1.753 0 0 1-1.754-1.753v-22.79c0-.968.785-1.753 1.753-1.753h29.802c.968 0 1.753.785 1.753 1.753v22.79c0 .968-.785 1.753-1.753 1.753z"/>
            <path fill="#50E3C2" d="M33.56 51.84l15.414-15.414v-2.48L31.08 51.84zM15.666 40.959v2.479L33.56 25.544h-2.478zM17.933 51.84h2.479l24.799-24.8a.876.876 0 1 0-1.24-1.239L17.934 51.84zM39.332 11.52c-3.823 0-5.96 3.111-7.012 5.376-1.052-2.265-3.189-5.376-7.012-5.376a4.388 4.388 0 0 0-4.383 4.383 4.388 4.388 0 0 0 4.383 4.382h14.024a4.388 4.388 0 0 0 4.383-4.382 4.388 4.388 0 0 0-4.383-4.383zm-14.024 7.012c-1.45 0-2.63-1.18-2.63-2.63s1.18-2.629 2.63-2.629c3.335 0 5.1 3.444 5.798 5.26h-5.798zm14.024 0h-5.798c.698-1.815 2.463-5.259 5.798-5.259 1.45 0 2.63 1.18 2.63 2.63s-1.18 2.63-2.63 2.63z"/>
            <path fill="#FF6C49" d="M50.727 27.297H13.913a1.753 1.753 0 0 1-1.753-1.753v-5.259c0-.968.785-1.753 1.753-1.753h36.814c.968 0 1.753.785 1.753 1.753v5.26c0 .968-.785 1.752-1.753 1.752z"/>
        </g>
    </g>
</svg>
