<svg xmlns="http://www.w3.org/2000/svg" width="66" height="66" viewBox="0 0 66 66">
    <g fill="none" fill-rule="evenodd" transform="translate(1 1)">
        <circle cx="32" cy="32" r="32" stroke="#474747"/>
        <g fill-rule="nonzero">
            <path fill="#F4AC5A" d="M39.3 32.274a7.309 7.309 0 0 1-14.568.534c-4.791 3.366-9.817 2.758-12.808.38.6 10.075 8.57 18.146 18.637 18.87 10.066.723 19.11-6.125 21.144-16.01-6.156 1.154-9.995-1.005-12.404-3.774z"/>
            <path fill="#F6479E" d="M32 11.886c-11.104.012-20.102 9.01-20.114 20.114 0 .4.014.795.038 1.189 2.99 2.377 8.017 2.985 12.808-.383A7.314 7.314 0 1 1 39.314 32c0 .091-.01.183-.013.274 2.409 2.77 6.248 4.93 12.404 3.775A20.123 20.123 0 0 0 32 11.886z"/>
            <path fill="#FFD82B" d="M25.6 22.857a.914.914 0 0 1-.646-.268l-1.829-1.828a.914.914 0 0 1 1.293-1.293l1.828 1.828a.914.914 0 0 1-.646 1.561zM42.057 23.771a.914.914 0 0 1-.646-.267l-1.829-1.829a.914.914 0 0 1 1.293-1.293l1.829 1.829a.914.914 0 0 1-.647 1.56z"/>
            <path fill="#5DFF5D" d="M32 20.114a.914.914 0 0 1-.646-1.56l1.828-1.829a.914.914 0 1 1 1.293 1.293l-1.829 1.828a.914.914 0 0 1-.646.268z"/>
            <path fill="#4FE4F3" d="M43.886 30.171a.914.914 0 0 1-.647-1.56l1.829-1.829a.914.914 0 0 1 1.293 1.293l-1.829 1.829a.914.914 0 0 1-.646.267zM19.2 29.257a.914.914 0 0 1-.646-1.56l1.828-1.83a.914.914 0 0 1 1.293 1.294l-1.829 1.828a.914.914 0 0 1-.646.268z"/>
        </g>
    </g>
</svg>
